<svg width="1037" height="692" viewBox="0 0 1037 692" fill="none" xmlns="http://www.w3.org/2000/svg">
<path fill-rule="evenodd" clip-rule="evenodd" d="M345.5 4C156.898 4 4 157.116 4 346C4 534.884 156.898 688 345.5 688C534.102 688 687 534.884 687 346C687 157.116 534.102 4 345.5 4ZM0 346C0 154.912 154.683 0 345.5 0C536.317 0 691 154.912 691 346C691 537.088 536.317 692 345.5 692C154.683 692 0 537.088 0 346Z" fill="#0095DA"/>
<path fill-rule="evenodd" clip-rule="evenodd" d="M691.5 4C502.898 4 350 157.116 350 346C350 534.884 502.898 688 691.5 688C880.102 688 1033 534.884 1033 346C1033 157.116 880.102 4 691.5 4ZM346 346C346 154.912 500.683 0 691.5 0C882.317 0 1037 154.912 1037 346C1037 537.088 882.317 692 691.5 692C500.683 692 346 537.088 346 346Z" fill="#0095DA"/>
<path fill-rule="evenodd" clip-rule="evenodd" d="M518.5 46.4316L519.51 47.0223C622.081 107.022 691 218.45 691 346C691 473.549 622.081 584.978 519.51 644.978L518.5 645.568L517.49 644.978C414.919 584.978 346 473.549 346 346C346 218.45 414.919 107.022 517.49 47.0223L518.5 46.4316ZM518.5 51.0681C417.664 110.518 350 220.346 350 346C350 471.654 417.664 581.482 518.5 640.932C619.336 581.482 687 471.654 687 346C687 220.346 619.336 110.518 518.5 51.0681Z" fill="#0095DA"/>
<path d="M239.312 338.632V341.188C240.176 339.748 242.3 338.2 245.324 338.2C250.292 338.2 251.84 341.116 251.84 346.372V358H245.9V347.848C245.9 345.076 245.792 342.808 242.912 342.808C240.392 342.808 239.312 344.5 239.312 348.064V358H233.372V338.632H239.312Z" fill="#0095DA"/>
<path d="M229.942 355.372C229.942 362.68 224.83 365.416 219.034 365.416C216.622 365.416 213.454 365.056 211.546 364.192V358.684C213.382 359.764 215.506 360.628 218.134 360.628C221.374 360.628 224.038 359.26 224.038 356.056V354.256C222.778 356.38 220.186 357.316 218.062 357.316C213.094 357.316 209.53 353.896 209.53 347.74C209.53 341.584 213.094 338.2 218.062 338.2C220.186 338.2 222.778 339.136 224.038 341.26V338.632H229.942V355.372ZM224.29 347.74C224.29 343.924 222.346 342.808 220.006 342.808C217.63 342.808 215.686 344.32 215.686 347.74C215.686 351.16 217.63 352.708 220.006 352.708C222.346 352.708 224.29 351.52 224.29 347.74Z" fill="#0095DA"/>
<path d="M201.062 330.82H207.002V335.572H201.062V330.82ZM201.062 338.632H207.038V358H201.062V338.632Z" fill="#0095DA"/>
<path d="M190.495 358.469C187.975 358.469 185.383 357.929 183.871 357.425V352.457C186.103 353.285 188.047 353.717 189.883 353.717C191.971 353.717 193.015 353.177 193.015 352.169C193.015 351.413 192.259 350.909 190.351 350.333L189.487 350.081C185.563 348.929 183.691 347.021 183.691 343.925C183.691 340.145 187.183 338.057 191.971 338.057C193.915 338.057 195.319 338.273 197.227 338.777V343.709C195.463 343.133 193.699 342.809 192.151 342.809C190.423 342.809 189.235 343.169 189.235 343.997C189.235 344.789 189.811 345.221 191.863 345.833L192.727 346.085C197.335 347.417 198.919 348.965 198.919 352.061C198.919 355.661 195.823 358.469 190.495 358.469Z" fill="#0095DA"/>
<path d="M182.22 349.829H168.828C169.404 352.961 172.32 353.609 174.66 353.609C176.532 353.609 178.908 353.177 180.672 352.349V357.317C179.196 357.929 176.856 358.469 173.58 358.469C167.64 358.469 162.96 354.617 162.96 348.209C162.96 342.017 167.316 338.057 172.968 338.057C179.376 338.057 182.616 342.953 182.22 349.829ZM172.752 342.521C171.024 342.521 169.044 343.313 168.792 346.229H176.424C176.424 343.709 174.768 342.521 172.752 342.521Z" fill="#0095DA"/>
<path d="M137.627 331.9H146.231C154.763 331.9 161.495 334.996 161.495 344.932C161.495 354.904 154.763 358 146.231 358H137.627V331.9ZM154.979 344.932C154.979 338.056 150.875 337.084 146.339 337.084H143.783V352.816H146.339C150.875 352.816 154.979 351.844 154.979 344.932Z" fill="#0095DA"/>
<path d="M590.348 358.469C587.828 358.469 585.236 357.929 583.724 357.425V352.457C585.956 353.285 587.9 353.717 589.736 353.717C591.824 353.717 592.868 353.177 592.868 352.169C592.868 351.413 592.112 350.909 590.204 350.333L589.34 350.081C585.416 348.929 583.544 347.021 583.544 343.925C583.544 340.145 587.036 338.057 591.824 338.057C593.768 338.057 595.172 338.273 597.08 338.777V343.709C595.316 343.133 593.552 342.809 592.004 342.809C590.276 342.809 589.088 343.169 589.088 343.997C589.088 344.789 589.664 345.221 591.716 345.833L592.58 346.085C597.188 347.417 598.772 348.965 598.772 352.061C598.772 355.661 595.676 358.469 590.348 358.469Z" fill="#0095DA"/>
<path d="M568.603 338.632V341.188C569.467 339.748 571.591 338.2 574.615 338.2C579.583 338.2 581.131 341.116 581.131 346.372V358H575.191V347.848C575.191 345.076 575.083 342.808 572.203 342.808C569.683 342.808 568.603 344.5 568.603 348.064V358H562.663V338.632H568.603Z" fill="#0095DA"/>
<path d="M539.768 348.245C539.768 341.225 544.664 338.057 550.028 338.057C555.392 338.057 560.288 341.225 560.288 348.245C560.288 355.265 555.392 358.469 550.028 358.469C544.664 358.469 539.768 355.265 539.768 348.245ZM545.816 348.245C545.816 352.313 547.616 353.861 550.028 353.861C552.44 353.861 554.24 352.313 554.24 348.245C554.24 344.141 552.368 342.665 550.028 342.665C547.688 342.665 545.816 344.141 545.816 348.245Z" fill="#0095DA"/>
<path d="M531.408 330.82H537.348V335.572H531.408V330.82ZM531.408 338.632H537.384V358H531.408V338.632Z" fill="#0095DA"/>
<path d="M518.18 338.632V333.34H524.12V338.632H529.088V342.844H524.12V350.656C524.12 353.5 525.164 353.788 526.46 353.788C527.468 353.788 528.44 353.536 529.124 353.248V357.82C528.044 358.144 526.712 358.468 525.164 358.468C521.096 358.468 518.18 357.172 518.18 351.988V342.844H514.4V338.632H518.18Z" fill="#0095DA"/>
<path d="M493.764 348.245C493.764 341.225 498.66 338.057 504.024 338.057C509.388 338.057 514.284 341.225 514.284 348.245C514.284 355.265 509.388 358.469 504.024 358.469C498.66 358.469 493.764 355.265 493.764 348.245ZM499.812 348.245C499.812 352.313 501.612 353.861 504.024 353.861C506.436 353.861 508.236 352.313 508.236 348.245C508.236 344.141 506.364 342.665 504.024 342.665C501.684 342.665 499.812 344.141 499.812 348.245Z" fill="#0095DA"/>
<path d="M466.805 347.92V358H460.865V338.632H466.805V341.188C467.669 339.748 469.757 338.2 472.673 338.2C475.769 338.2 477.532 339.352 478.432 341.476C479.908 339.316 482.321 338.2 485.056 338.2C490.024 338.2 491.573 341.116 491.573 346.372V358H485.633V347.848C485.633 345.076 485.489 342.808 482.645 342.808C480.233 342.808 479.189 344.5 479.189 347.92V358H473.249V347.848C473.249 345.076 473.105 342.808 470.261 342.808C467.849 342.808 466.805 344.5 466.805 347.92Z" fill="#0095DA"/>
<path d="M439.83 358V331.9H458.046V337.336H445.986V341.872H457.29V347.308H445.986V352.564H458.046V358H439.83Z" fill="#0095DA"/>
<path d="M906.681 365.02H901.209L904.017 357.892L896.781 338.632H903.297L906.861 350.764L910.677 338.632H917.049L906.681 365.02Z" fill="#0095DA"/>
<path d="M885.785 338.632V333.34H891.725V338.632H896.693V342.844H891.725V350.656C891.725 353.5 892.769 353.788 894.065 353.788C895.073 353.788 896.045 353.536 896.729 353.248V357.82C895.649 358.144 894.317 358.468 892.769 358.468C888.701 358.468 885.785 357.172 885.785 351.988V342.844H882.005V338.632H885.785Z" fill="#0095DA"/>
<path d="M874.437 330.82H880.377V335.572H874.437V330.82ZM874.437 338.632H880.413V358H874.437V338.632Z" fill="#0095DA"/>
<path d="M870.972 330.82V358H865.032V330.82H870.972Z" fill="#0095DA"/>
<path d="M855.592 330.82H861.532V335.572H855.592V330.82ZM855.592 338.632H861.568V358H855.592V338.632Z" fill="#0095DA"/>
<path d="M832.757 330.82H838.697V341.26C839.957 339.136 842.513 338.2 844.637 338.2C849.605 338.2 853.169 341.98 853.169 348.316C853.169 354.652 849.605 358.468 844.637 358.468C842.513 358.468 839.957 357.532 838.697 355.408V358H832.757V330.82ZM838.409 348.316C838.409 352.312 840.353 353.86 842.693 353.86C845.069 353.86 847.013 351.916 847.013 348.316C847.013 344.716 845.069 342.808 842.693 342.808C840.353 342.808 838.409 344.32 838.409 348.316Z" fill="#0095DA"/>
<path d="M811.227 352.565C811.227 348.137 815.799 346.229 823.647 345.401C823.251 343.421 821.955 342.845 819.543 342.845C817.167 342.845 815.043 343.529 813.243 344.429V339.533C814.395 338.993 817.455 338.057 820.551 338.057C826.347 338.057 829.623 340.721 829.515 347.165L829.443 350.369C829.407 352.889 829.443 356.345 829.695 358.001H824.151L823.971 355.301C822.531 357.605 820.407 358.469 818.103 358.469C814.143 358.469 811.227 355.877 811.227 352.565ZM820.083 354.437C821.883 354.437 823.935 353.105 823.935 349.073V348.821C819.543 349.073 817.347 349.973 817.347 351.953C817.347 353.285 818.319 354.437 820.083 354.437Z" fill="#0095DA"/>
<path d="M801.992 358.469C799.472 358.469 796.88 357.929 795.368 357.425V352.457C797.6 353.285 799.544 353.717 801.38 353.717C803.468 353.717 804.512 353.177 804.512 352.169C804.512 351.413 803.756 350.909 801.848 350.333L800.984 350.081C797.06 348.929 795.188 347.021 795.188 343.925C795.188 340.145 798.68 338.057 803.468 338.057C805.412 338.057 806.816 338.273 808.724 338.777V343.709C806.96 343.133 805.196 342.809 803.648 342.809C801.92 342.809 800.732 343.169 800.732 343.997C800.732 344.789 801.308 345.221 803.36 345.833L804.224 346.085C808.832 347.417 810.416 348.965 810.416 352.061C810.416 355.661 807.32 358.469 801.992 358.469Z" fill="#0095DA"/>
<path d="M770.266 331.9H776.422V347.488C776.422 351.304 777.322 353.428 781.606 353.428C785.926 353.428 786.682 350.98 786.682 347.128V331.9H792.838V346.624C792.838 354.652 789.742 358.468 781.606 358.468C773.794 358.468 770.266 355.444 770.266 346.84V331.9Z" fill="#0095DA"/>
</svg>
