<?xml version="1.0" encoding="utf-8"?>
<!-- Generator: Adobe Illustrator 28.0.0, SVG Export Plug-In . SVG Version: 6.00 Build 0)  -->
<svg version="1.1" id="Layer_1" xmlns="http://www.w3.org/2000/svg" xmlns:xlink="http://www.w3.org/1999/xlink" x="0px" y="0px"
	 viewBox="0 0 1007 896" style="enable-background:new 0 0 1007 896;" xml:space="preserve">
<path d="M966.7,685.8c-19.9-22.9-47-37.3-76.9-40.9c9-6,17.3-13.3,24.7-21.7c21.3-24.5,31.8-55.8,29.5-88.2
	c-2.3-32.4-17-61.9-41.5-83.2c-24.5-21.3-55.8-31.8-88.2-29.5l-149.4,10.4c0-0.2,0-0.4,0-0.6c1.2-67-52.4-122.5-119.3-123.6
	l-14.8-0.3l355.2-49.9c32.1-4.5,60.6-21.3,80.1-47.2c19.5-25.9,27.8-57.9,23.3-90C980,54.7,918.5,8.3,852.1,17.6L121.3,120.3
	c-32.1,4.5-60.6,21.3-80.1,47.2s-27.8,57.9-23.3,90h0c4.5,32.1,21.3,60.6,47.2,80.1c20.6,15.5,45,23.9,70.2,24.4
	c-10.6,17.7-16.9,38.3-17.3,60.4c-0.6,32.5,11.5,63.2,34.1,86.5s52.8,36.5,85.3,37.1l304,5.3c0.3,0,0.6,0,0.9,0
	c-0.1,3.8,0,7.7,0.3,11.6c1.5,21.3,8.4,41.4,19.9,58.8l-337.3-23.6c-32.4-2.3-63.7,8.2-88.2,29.5S97.7,678.6,95.4,711
	c-2.3,32.4,8.2,63.7,29.5,88.2c21.3,24.5,50.8,39.2,83.2,41.5l658.4,46c2.9,0.2,5.8,0.3,8.7,0.3c29.3,0,57.2-10.4,79.5-29.8
	c24.5-21.3,39.2-50.9,41.5-83.2C998.5,741.6,988,710.3,966.7,685.8z M981.2,772.9c-2,28.4-14.9,54.3-36.4,73
	c-21.5,18.7-48.9,27.8-77.3,25.9l-658.4-46c-28.4-2-54.3-14.9-72.9-36.4c-18.7-21.5-27.8-48.9-25.9-77.3c2-28.4,14.9-54.3,36.4-73
	c19.6-17,44.1-26.1,69.7-26.1c2.5,0,5,0.1,7.6,0.3l351,24.5c2.8,3,5.8,5.8,8.9,8.6c22.3,19.4,50.3,29.8,79.5,29.8
	c2.9,0,5.8-0.1,8.7-0.3l159.1-11.1c11.2-0.8,22.1-3.1,32.5-6.8l18.8,1.3c28.4,2,54.3,14.9,72.9,36.4
	C974,717.1,983.2,744.6,981.2,772.9z M557.2,550.7c26.5-3,51.1-14.5,70.6-33.3c19.5-18.9,31.9-43.1,35.8-69.5l151.7-10.6
	c2.5-0.2,5.1-0.3,7.6-0.3c25.6,0,50.2,9.1,69.7,26.1c21.5,18.7,34.4,44.6,36.4,73c2,28.4-7.2,55.8-25.9,77.3
	c-11.5,13.2-25.8,23.2-41.6,29.4c-7.1,2.8-14.6,4.8-22.2,6c-3,0.5-6,0.8-9.1,1l-41.9,2.9L671,660.9c-26,1.8-51.2-5.8-71.8-21.4
	c-1.9-1.4-3.7-2.9-5.5-4.5c-1.4-1.2-2.8-2.5-4.1-3.7c-2.7-2.6-5.2-5.3-7.5-8c-14.5-17.1-23.2-38.4-24.8-61.2
	C557.1,558.2,557,554.4,557.2,550.7z M162.8,498.6c-19.8-20.5-30.4-47.4-29.9-75.9c0.4-23.1,8.2-44.4,21.1-61.7
	c2.2-3,4.6-5.8,7.1-8.6c2.9-3.1,6-6.1,9.2-8.9c18.6-16,42.8-25.6,69.1-25.6c0.6,0,1.3,0,1.9,0l98.6,1.7l47.9,0.8l47.9,0.8l109.5,1.9
	c58.7,1,105.6,49.6,104.6,108.4c0,0.7,0,1.4-0.1,2.1c-0.1,2.6-0.3,5.1-0.5,7.6c-0.3,2.6-0.6,5.2-1.1,7.7
	c-4,21.8-14.6,41.7-30.8,57.4c-16.3,15.7-36.6,25.6-58.5,28.8c-2.6,0.4-5.2,0.6-7.8,0.8c-2.5,0.2-5.1,0.3-7.6,0.3
	c-0.6,0-1.3,0-1.9,0l-304-5.3C209.1,530.6,182.6,519.1,162.8,498.6z M74.1,325.7c-22.7-17.1-37.4-42.1-41.4-70.2
	c-4-28.2,3.3-56.2,20.4-78.9c17.1-22.7,42.1-37.4,70.2-41.4L854.2,32.4c58.2-8.2,112.1,32.5,120.3,90.7c4,28.2-3.3,56.2-20.4,78.9
	c-17.1,22.7-42.1,37.4-70.2,41.4l-449,63.1l-193.3-3.4c-38.2-0.7-72.6,16.5-95.4,43.7C120.3,348.8,95,341.4,74.1,325.7z"/>
<path d="M150.9,181.6l36-5.1c35.7-5,65.6,4,71.5,45.5c5.9,41.7-20.5,58.6-56.1,63.6l-36,5.1L150.9,181.6z M231.1,225.9
	c-4-28.8-21.8-30.4-40.7-27.7l-10.7,1.5l9.2,65.8l10.7-1.5C218.6,261.2,235.2,254.8,231.1,225.9z"/>
<path d="M346.4,230.5l-56,7.9c4.2,12.8,16.8,13.8,26.6,12.4c7.8-1.1,17.5-4.3,24.4-8.8l2.9,20.8c-5.8,3.4-15.3,7.1-29,9
	c-24.8,3.5-46.7-9.9-50.4-36.7c-3.6-25.9,12.2-45,35.9-48.3C327.6,183,344,201.5,346.4,230.5z M302.5,205.5c-7.2,1-15,5.5-14.4,17.8
	l31.9-4.5C318.6,208.3,311,204.3,302.5,205.5z"/>
<path d="M384.6,262c-10.5,1.5-21.7,0.7-28.3-0.5l-2.9-20.8c9.8,2.2,18.2,2.8,25.9,1.7c8.7-1.2,12.8-4.1,12.2-8.3
	c-0.4-3.2-3.9-4.8-12.2-6.1l-3.8-0.5c-17.1-2.5-26-9.4-27.9-22.3c-2.2-15.8,11.2-26.6,31.2-29.4c8.1-1.1,14.1-1.1,22.4-0.1l2.9,20.6
	c-7.7-1.4-15.3-1.7-21.8-0.8c-7.2,1-12,3.2-11.5,6.7c0.5,3.3,3.1,4.8,12.1,6.1l3.8,0.5c20,2.9,27.6,8.4,29.4,21.3
	C418.2,245.3,406.9,258.9,384.6,262z"/>
<path d="M411,140.4l24.8-3.5l2.8,19.9l-24.8,3.5L411,140.4z M415.6,173.1l25-3.5l11.4,81l-25,3.5L415.6,173.1z"/>
<path d="M544.7,226.3c4.3,30.6-15.5,45-39.7,48.4c-10.1,1.4-23.5,1.8-32-0.7l-3.2-23c8.3,3.4,17.7,5.8,28.7,4.3
	c13.5-1.9,23.9-9.2,22-22.6l-1.1-7.5c-4,9.6-14.3,15.1-23.2,16.3c-20.8,2.9-37.7-9.3-41.3-35c-3.6-25.7,9.3-42,30.1-44.9
	c8.9-1.2,20.3,1.1,26.8,9.3l-1.5-11l24.7-3.5L544.7,226.3z M516.6,197.7c-2.2-16-11-19.5-20.8-18.1c-9.9,1.4-17.2,8.9-15.2,23.2
	c2,14.3,11,19.6,21,18.2C511.4,219.6,518.8,213.5,516.6,197.7z"/>
<path d="M572.5,151l1.5,10.7c2.8-6.5,10.7-14.2,23.4-16c20.8-2.9,29,8.4,32,30.3l6.8,48.6l-24.8,3.5l-6-42.4
	c-1.6-11.6-3.4-21-15.5-19.3c-10.5,1.5-14.1,9.2-12,24.1l5.8,41.5l-24.8,3.5l-11.4-81L572.5,151z"/>
<path d="M632.5,109.3l24.8-3.5l2.8,19.9l-24.8,3.5L632.5,109.3z M637.1,141.9l25-3.5l11.4,81l-25,3.5L637.1,141.9z"/>
<path d="M699.9,133.1l1.5,10.7c2.8-6.5,10.7-14.2,23.4-16c20.8-2.9,29,8.4,32,30.3l6.8,48.6l-24.8,3.5l-6-42.4
	c-1.6-11.6-3.4-21-15.5-19.3c-10.5,1.5-14.1,9.2-12,24.1l5.8,41.5l-24.8,3.5l-11.4-81L699.9,133.1z"/>
<path d="M855.6,182.6c4.3,30.6-15.5,45-39.7,48.4c-10.1,1.4-23.5,1.8-32-0.7l-3.2-23c8.3,3.4,17.7,5.8,28.7,4.3
	c13.5-1.9,23.9-9.2,22-22.6l-1.1-7.5c-4,9.6-14.3,15.1-23.2,16.3c-20.8,2.9-37.7-9.3-41.3-35c-3.6-25.7,9.3-42,30.1-44.9
	c8.9-1.2,20.3,1.1,26.8,9.3l-1.5-11l24.7-3.5L855.6,182.6z M827.5,154c-2.2-16-11-19.5-20.8-18.1c-9.9,1.4-17.2,8.9-15.2,23.2
	c2,14.3,11,19.6,21,18.2C822.3,175.9,829.7,169.8,827.5,154z"/>
<path d="M271.2,777.9l7.7-109.9l73.4,5.1l-1.6,22.9l-47.5-3.3l-1.3,19.1l44.1,3.1l-1.6,22.9l-44.1-3.1l-3.1,45L271.2,777.9z"/>
<path d="M344.1,760c1.3-18.7,21.1-25.3,54.4-26.5c-1.1-8.5-6.4-11.3-16.5-12c-10-0.7-19.2,1.6-27,4.8l1.4-20.6
	c5-1.9,18.2-5,31.2-4.1c24.4,1.7,37.4,13.9,35.1,41l-1.2,13.5c-0.9,10.6-1.8,25.2-1.2,32.2l-23.4-1.6l0-11.4
	c-6.7,9.3-15.9,12.3-25.6,11.6C354.6,785.7,343.1,773.9,344.1,760z M380.8,770.5c7.6,0.5,16.6-4.5,17.8-21.5l0.1-1.1
	c-18.6-0.2-28.1,2.9-28.7,11.3C369.7,764.8,373.4,770,380.8,770.5z"/>
<path d="M459.6,748.4l-3,42.5l-25-1.8l5.7-81.6l25,1.8l-0.8,10.8c4.1-5.8,13.3-11.7,25.6-10.9c13,0.9,20.1,6.3,23.3,15.5
	c6.9-8.7,17.3-12.7,28.9-11.8c20.9,1.5,26.6,14.2,25,36.3l-3.4,49l-25-1.8l3-42.8c0.8-11.7,0.9-21.3-11.1-22.1
	c-10.2-0.7-15.1,6.1-16.1,20.5l-3,42.5l-25-1.7l3-42.8c0.8-11.7,0.9-21.3-11.1-22.1C465.5,727.2,460.7,734,459.6,748.4z"/>
<path d="M581.3,684.5l25,1.7l-1.4,20l-25-1.7L581.3,684.5z M579,717.4l25.2,1.8l-5.7,81.6l-25.2-1.8L579,717.4z"/>
<path d="M644.5,689l-8,114.5l-25-1.8l8-114.5L644.5,689z"/>
<path d="M657.6,689.9l25,1.7l-1.4,20l-25-1.8L657.6,689.9z M655.3,722.8l25.2,1.8l-5.7,81.6l-25.2-1.8L655.3,722.8z"/>
<path d="M683.8,783.7c1.3-18.7,21.1-25.3,54.4-26.5c-1.1-8.5-6.4-11.3-16.5-12c-10-0.7-19.2,1.6-27,4.8l1.4-20.6
	c5-1.9,18.2-5,31.2-4.1c24.4,1.7,37.4,13.9,35.1,41l-1.2,13.5c-0.9,10.6-1.8,25.2-1.2,32.2l-23.4-1.6l0-11.4
	c-6.7,9.3-15.9,12.3-25.6,11.6C694.4,809.5,682.9,797.7,683.8,783.7z M720.6,794.2c7.6,0.5,16.6-4.5,17.8-21.5l0.1-1.1
	c-18.6-0.2-28.1,2.9-28.7,11.3C709.4,788.6,713.2,793.7,720.6,794.2z"/>
<path d="M827.3,734.3l-1.7,24.4c-2.7-0.5-4.5-0.8-6.8-0.9c-12-0.8-18.7,3.1-19.5,15.9l-2.9,40.9l-25-1.7l5.7-81.6l24.1,1.7
	l-1.1,15.5c4.5-9.3,11.7-14.9,23.4-14.5C824.8,734,826.1,734.1,827.3,734.3z"/>
<path d="M647.9,516.6l22.2-6.7l1.5,21.2l16.5-1.2l1.2,17l-16.5,1.2l1.9,26.8c0.6,8.9,3,12.9,10,12.4c2.9-0.2,5.1-0.7,6.8-1.1
	l1.4,17.4c-2.9,1.4-8.4,2.6-14.9,3c-7.4,0.5-13.8-1.6-17.7-5.2c-4.6-4.1-7.2-11.1-7.9-21.5l-2.1-30.3l-9.9,0.7l-1.2-17l9.9-0.7
	L647.9,516.6z"/>
<path d="M699.1,603.7l-7.5-107.7l23-1.6l3,42.3l0.3,0c2.2-3.4,5.1-6,8.6-8.2c3.2-2.1,7.5-3.4,11.8-3.7c14.7-1,26.6,8.3,28.2,30.6
	l3,43.4l-23,1.6l-2.9-40.8c-0.7-9.7-4.5-16.1-13.1-15.5c-6.1,0.4-9.6,4.6-11,8.8c-0.5,1.6-0.5,3.5-0.4,5.2l3.1,44L699.1,603.7z"/>
<path d="M843.8,563.7l-47.8,3.3c1.4,9.5,11.1,13.4,21.9,12.6c7.9-0.6,14.2-2.1,20.3-4.5l4.1,15.4c-7.4,3.6-16.5,5.7-26.5,6.4
	c-25.2,1.8-40.6-11.8-42.2-35c-1.3-18.8,8.9-40.4,34.7-42.2c24-1.7,34.4,16.3,35.6,34.7C844.2,558.5,844,562,843.8,563.7z
	 M794.8,551.3l27.3-1.9c-0.4-5.6-3.5-14.8-14.1-14.1C798.3,536,795,545.1,794.8,551.3z"/>
<path d="M254.4,402l23.6,0.4l5.4,30.5c1.4,7.8,2.8,16,3.8,24.5l0.3,0c1.7-8.5,3.9-17,5.9-24.2l8.4-30.4l18.2,0.3L327,433
	c1.8,8.4,3.7,16.8,5,25.3l0.3,0c1.2-8.5,2.9-16.8,4.7-25.3l6.9-29.4l22.6,0.4l-24.1,73.9l-21.7-0.4l-6.5-26.3
	c-1.7-7.3-2.9-14-4.3-23.2l-0.3,0c-1.5,9.2-3.2,16.1-5.3,23l-7.9,26l-21.7-0.4L254.4,402z"/>
<path d="M391.6,478.8l-23.1-0.4l1.3-74.3l23.1,0.4L391.6,478.8z M381.9,371.9c7.4,0.1,12.1,5.2,12.1,11.9
	c-0.1,6.4-5.1,11.5-12.7,11.3c-7.3-0.1-12.1-5.4-11.8-11.8C369.5,376.7,374.4,371.8,381.9,371.9z"/>
<path d="M407.3,388.6l22.7-4.8l-0.4,21.3l16.6,0.3l-0.3,17l-16.6-0.3l-0.5,26.9c-0.2,9,1.9,13.1,8.9,13.2c2.9,0.1,5.2-0.2,6.8-0.5
	l-0.2,17.5c-3.1,1.2-8.5,1.8-15.1,1.7c-7.4-0.1-13.6-2.8-17.2-6.7c-4.2-4.5-6.2-11.7-6-22.1l0.5-30.4l-9.9-0.2l0.3-17l9.9,0.2
	L407.3,388.6z"/>
<path d="M450.8,479.8l1.9-107.9l23.1,0.4l-0.7,42.4l0.3,0c2.5-3.2,5.6-5.5,9.3-7.4c3.4-1.8,7.8-2.8,12.1-2.7
	c14.7,0.3,25.8,10.6,25.4,33l-0.8,43.5l-23.1-0.4l0.7-40.9c0.2-9.7-3.1-16.5-11.7-16.6c-6.1-0.1-9.9,3.8-11.7,7.9
	c-0.6,1.5-0.8,3.5-0.9,5.2l-0.8,44.1L450.8,479.8z"/>
</svg>
